<svg xmlns="http://www.w3.org/2000/svg" viewBox="0 0 1920 1080" width="1920" height="1080">
  <defs>
    <linearGradient id="sky" x1="0" y1="0" x2="0" y2="1">
      <stop offset="0%" stop-color="#050e08"/>
      <stop offset="100%" stop-color="#0e1f14"/>
    </linearGradient>
    <radialGradient id="moon" cx="0.7" cy="0.25" r="0.35">
      <stop offset="0%" stop-color="#42a54b" stop-opacity="0.15"/>
      <stop offset="100%" stop-color="#42a54b" stop-opacity="0"/>
    </radialGradient>
    <radialGradient id="glow" cx="0.3" cy="0.6" r="0.5">
      <stop offset="0%" stop-color="#12301a" stop-opacity="0.1"/>
      <stop offset="100%" stop-color="#12301a" stop-opacity="0"/>
    </radialGradient>
  </defs>
  <rect width="1920" height="1080" fill="url(#sky)"/>
  <rect width="1920" height="1080" fill="url(#moon)"/>
  <rect width="1920" height="1080" fill="url(#glow)"/>
  <!-- Stars -->
  <circle cx="150" cy="80" r="1.5" fill="#F8FBFF" opacity="0.8"/>
  <circle cx="320" cy="150" r="1" fill="#F8FBFF" opacity="0.6"/>
  <circle cx="500" cy="50" r="1.2" fill="#FF91C0" opacity="0.5"/>
  <circle cx="680" cy="200" r="1" fill="#F8FBFF" opacity="0.7"/>
  <circle cx="850" cy="100" r="1.5" fill="#F8FBFF" opacity="0.5"/>
  <circle cx="1020" cy="180" r="1" fill="#FF91C0" opacity="0.4"/>
  <circle cx="1200" cy="60" r="1.2" fill="#F8FBFF" opacity="0.8"/>
  <circle cx="1380" cy="220" r="1" fill="#F8FBFF" opacity="0.6"/>
  <circle cx="1550" cy="90" r="1.5" fill="#FF91C0" opacity="0.5"/>
  <circle cx="1700" cy="160" r="1" fill="#F8FBFF" opacity="0.7"/>
  <circle cx="1850" cy="40" r="1.2" fill="#F8FBFF" opacity="0.6"/>
  <circle cx="250" cy="350" r="1" fill="#F8FBFF" opacity="0.4"/>
  <circle cx="450" cy="400" r="1.5" fill="#F8FBFF" opacity="0.5"/>
  <circle cx="750" cy="380" r="1" fill="#FF91C0" opacity="0.3"/>
  <circle cx="1100" cy="420" r="1.2" fill="#F8FBFF" opacity="0.6"/>
  <circle cx="1450" cy="350" r="1" fill="#F8FBFF" opacity="0.5"/>
  <circle cx="1750" cy="400" r="1.5" fill="#FF91C0" opacity="0.4"/>
  <circle cx="100" cy="500" r="1" fill="#F8FBFF" opacity="0.3"/>
  <circle cx="600" cy="550" r="1.2" fill="#F8FBFF" opacity="0.4"/>
  <circle cx="1300" cy="520" r="1" fill="#F8FBFF" opacity="0.5"/>
</svg>
